<?xml version="1.0" standalone="no"?>
<!DOCTYPE svg PUBLIC "-//W3C//DTD SVG 20010904//EN"
 "http://www.w3.org/TR/2001/REC-SVG-20010904/DTD/svg10.dtd">
<svg version="1.0" xmlns="http://www.w3.org/2000/svg"
 width="215.000000pt" height="143.000000pt" viewBox="0 0 215.000000 143.000000"
 preserveAspectRatio="xMidYMid meet">

<g transform="translate(0.000000,143.000000) scale(0.100000,-0.100000)"
fill="#000000" stroke="none">
<path d="M1168 958 c-16 -7 -28 -15 -28 -20 0 -4 -7 -8 -15 -8 -21 0 -20 -67
2 -88 14 -15 51 -18 272 -22 166 -3 263 -9 276 -17 71 -40 94 -122 53 -183
-39 -57 -61 -62 -252 -63 -113 0 -173 -4 -178 -11 -4 -6 -8 -33 -7 -61 l0 -50
167 -172 167 -172 95 -2 c52 -1 99 -1 103 0 5 0 -59 72 -143 158 l-151 158 84
6 c66 4 94 12 136 35 164 89 200 291 75 424 -78 83 -107 90 -387 95 -171 3
-250 1 -269 -7z"/>
<path d="M1128 762 c-21 -4 -25 -60 -32 -383 l-6 -237 25 -26 c20 -21 33 -26
73 -26 53 0 62 8 62 58 0 26 0 26 43 -15 l42 -41 103 -5 c56 -4 102 -2 102 3
0 4 -65 76 -145 159 l-145 150 0 74 c0 41 3 89 6 106 l7 31 193 0 193 0 20 26
c12 15 21 33 21 40 0 23 -22 63 -39 70 -9 3 -108 8 -221 10 -113 3 -223 6
-245 7 -22 2 -48 1 -57 -1z"/>
</g>
</svg>
