<?xml version="1.0" standalone="no"?>
<!DOCTYPE svg PUBLIC "-//W3C//DTD SVG 20010904//EN"
 "http://www.w3.org/TR/2001/REC-SVG-20010904/DTD/svg10.dtd">
<svg version="1.0" xmlns="http://www.w3.org/2000/svg"
 width="500.000000pt" height="500.000000pt" viewBox="0 0 500.000000 500.000000"
 preserveAspectRatio="xMidYMid meet">

<g transform="translate(0.000000,500.000000) scale(0.100000,-0.100000)"
fill="#000000" stroke="none">
<path d="M2431 2764 c-32 -16 -64 -43 -83 -68 l-30 -41 91 -5 c81 -5 94 -8
117 -31 34 -34 43 -102 20 -147 -22 -42 -63 -62 -131 -62 l-55 0 0 -50 0 -50
-45 0 -44 0 -3 126 -3 126 -72 -125 c-80 -136 -88 -169 -50 -205 l23 -22 790
0 c773 0 790 1 834 21 25 11 56 30 69 42 25 23 244 387 255 424 8 26 -16 78
-39 87 -9 3 -371 6 -804 6 l-787 0 -53 -26z m324 -198 c18 -8 38 -23 44 -34 6
-12 11 -66 11 -121 l0 -101 -40 0 c-30 0 -40 4 -40 16 0 14 -2 14 -22 0 -12
-9 -40 -16 -62 -16 -53 0 -86 30 -86 80 0 54 26 73 106 78 66 4 75 10 49 32
-11 9 -32 11 -69 6 -49 -5 -54 -4 -64 19 -6 14 -11 25 -9 25 1 0 20 7 42 15
51 18 97 19 140 1z m172 -6 c5 -19 7 -20 23 -5 10 9 37 19 59 22 35 5 44 2 71
-25 30 -30 30 -32 30 -136 l0 -106 -40 0 -40 0 0 83 c0 91 -8 107 -52 107 -38
0 -48 -24 -48 -114 l0 -76 -45 0 -45 0 0 128 c0 71 3 132 7 135 3 4 22 7 41 7
26 0 35 -5 39 -20z m399 4 c38 -18 59 -50 69 -107 l7 -37 -96 0 c-93 0 -96 -1
-86 -20 15 -28 58 -36 91 -18 26 15 28 15 49 -7 l22 -24 -33 -20 c-22 -14 -51
-21 -82 -21 -90 0 -139 46 -139 132 0 59 21 94 73 120 43 22 81 23 125 2z
m171 -4 c5 -20 7 -20 24 -4 12 11 42 18 84 21 l65 5 0 -79 c0 -85 16 -123 50
-123 34 0 50 38 50 122 l0 78 40 0 40 0 0 -135 0 -135 -40 0 c-34 0 -40 3 -40
20 l0 21 -22 -21 c-22 -20 -78 -27 -113 -14 -27 11 -45 60 -45 127 l0 64 -27
-5 c-53 -9 -63 -28 -63 -114 l0 -78 -45 0 -45 0 0 128 c0 71 3 132 7 135 3 4
22 7 41 7 26 0 35 -5 39 -20z"/>
<path d="M2640 2396 c0 -13 7 -27 16 -30 22 -8 68 15 72 37 3 14 -4 17 -42 17
-42 0 -46 -2 -46 -24z"/>
<path d="M3227 2502 c-26 -28 -21 -32 33 -32 54 0 69 19 31 40 -28 15 -46 12
-64 -8z"/>
<path d="M710 2480 l0 -170 45 0 45 0 0 50 c0 50 0 50 33 50 30 0 36 -5 57
-50 23 -50 24 -50 72 -50 26 0 48 2 48 4 0 3 -14 28 -32 55 l-31 51 21 23 c54
58 49 151 -11 187 -26 17 -51 20 -139 20 l-108 0 0 -170z m195 90 c18 -15 20
-61 3 -78 -7 -7 -34 -12 -60 -12 l-48 0 0 56 0 57 45 -5 c25 -3 52 -11 60 -18z"/>
<path d="M2360 2535 l0 -55 50 0 c44 0 52 3 62 25 16 36 -2 70 -42 79 -67 13
-70 11 -70 -49z"/>
<path d="M1091 2562 c-52 -26 -73 -61 -73 -120 0 -86 49 -132 139 -132 31 0
60 7 82 21 l33 20 -22 24 c-21 22 -23 22 -49 7 -33 -18 -76 -10 -91 18 -10 19
-7 20 86 20 l96 0 -7 37 c-10 57 -31 89 -69 107 -44 21 -82 20 -125 -2z m90
-52 c38 -21 23 -40 -31 -40 -54 0 -59 4 -33 32 18 20 36 23 64 8z"/>
<path d="M1270 2572 c0 -5 23 -65 52 -132 56 -134 56 -157 1 -153 -24 2 -32
-3 -42 -24 -16 -36 -2 -48 59 -48 40 0 54 5 74 25 23 24 136 295 136 326 0 11
-10 14 -37 12 -38 -3 -38 -3 -64 -81 -15 -43 -29 -80 -32 -83 -2 -3 -18 32
-35 78 l-30 83 -41 3 c-22 2 -41 -1 -41 -6z"/>
<path d="M1614 2561 c-95 -43 -98 -187 -5 -236 71 -36 178 -7 205 56 l13 31
21 -35 c30 -51 106 -68 150 -34 18 14 16 -37 -3 -53 -15 -12 -85 -10 -116 4
-21 9 -47 -43 -27 -56 52 -33 157 -32 201 2 41 32 48 65 45 205 l-3 130 -38 3
c-25 2 -39 -1 -43 -11 -5 -13 -9 -13 -35 0 -42 21 -92 10 -123 -28 -14 -17
-26 -38 -26 -46 0 -9 -10 -1 -23 18 -43 65 -117 84 -193 50z m110 -70 c27 -29
18 -91 -15 -110 -24 -13 -29 -13 -53 2 -20 14 -26 26 -26 54 0 64 56 96 94 54z
m274 7 c7 -7 12 -28 12 -48 0 -43 -14 -60 -51 -60 -33 0 -52 22 -52 60 0 16 5
36 13 44 15 19 61 21 78 4z"/>
</g>
</svg>
